<svg xmlns="http://www.w3.org/2000/svg" version="1.1" xmlns:xlink="http://www.w3.org/1999/xlink" xmlns:svgjs="http://svgjs.com/svgjs" width="1440" height="560" preserveAspectRatio="none" viewBox="0 0 1440 560"><g mask="url(&quot;#SvgjsMask1044&quot;)" fill="none"><rect width="1440" height="560" x="0" y="0" fill="rgba(6, 44, 114, 1)"></rect><path d="M 0,176 C 96,158.2 288,68 480,87 C 672,106 768,273 960,271 C 1152,269 1344,115.8 1440,77L1440 560L0 560z" fill="rgba(2, 108, 128, 1)"></path><path d="M 0,329 C 72,348.4 216,412.6 360,426 C 504,439.4 576,373.2 720,396 C 864,418.8 936,540.8 1080,540 C 1224,539.2 1368,421.6 1440,392L1440 560L0 560z" fill="rgba(141, 180, 173, 1)"></path></g><defs><mask id="SvgjsMask1044"><rect width="1440" height="560" fill="#ffffff"></rect></mask></defs></svg>